<svg width="15" height="14" viewBox="0 0 15 14" fill="none" xmlns="http://www.w3.org/2000/svg">
<path d="M8.50809 2.00943L9.53464 4.0795C9.67464 4.36766 10.0479 4.64407 10.3629 4.69699L12.2235 5.00868C13.4134 5.20863 13.6934 6.07901 12.836 6.93762L11.3895 8.39607C11.1445 8.64305 11.0104 9.1194 11.0861 9.46053L11.5003 11.2659C11.8269 12.695 11.0745 13.2478 9.82047 12.5009L8.07648 11.46C7.76154 11.2718 7.24243 11.2718 6.9216 11.46L5.17765 12.5009C3.92945 13.2478 3.1712 12.6891 3.49784 11.2659L3.91196 9.46053C3.98778 9.1194 3.85363 8.64305 3.60865 8.39607L2.16215 6.93762C1.31058 6.07901 1.58471 5.20863 2.77458 5.00868L4.63521 4.69699C4.94434 4.64407 5.31763 4.36766 5.45761 4.0795L6.48416 2.00943C7.0441 0.88618 7.95398 0.88618 8.50809 2.00943Z" fill="#8B7D97"/>
</svg>
