<svg width="77" height="16" viewBox="0 0 77 16" fill="none" xmlns="http://www.w3.org/2000/svg">
<path d="M73.7891 15.0854V5.4532H76.8788V15.0854H73.7891ZM75.3441 4.1253C74.8594 4.1253 74.4555 3.96675 74.1324 3.64964C73.8228 3.31931 73.668 2.92293 73.668 2.46048C73.668 1.98481 73.8228 1.58843 74.1324 1.27132C74.4555 0.954209 74.8594 0.795654 75.3441 0.795654C75.8287 0.795654 76.2259 0.954209 76.5355 1.27132C76.8452 1.58843 77 1.98481 77 2.46048C77 2.92293 76.8452 3.31931 76.5355 3.64964C76.2259 3.96675 75.8287 4.1253 75.3441 4.1253Z" fill="#AE6CE1"/>
<path d="M65.879 15.2835C64.977 15.2835 64.1693 15.0655 63.4557 14.6294C62.7557 14.1934 62.197 13.5988 61.7796 12.8457C61.3758 12.0926 61.1738 11.2337 61.1738 10.2692C61.1738 9.30463 61.3758 8.4458 61.7796 7.69266C62.197 6.93953 62.7557 6.34495 63.4557 5.90892C64.1693 5.47289 64.977 5.25488 65.879 5.25488C66.5387 5.25488 67.131 5.3804 67.6561 5.63145C68.1946 5.88249 68.6321 6.23264 68.9687 6.68187C69.3053 7.1179 69.4937 7.61999 69.5341 8.18814V12.3502C69.4937 12.9184 69.3053 13.4271 68.9687 13.8763C68.6456 14.3123 68.2148 14.6559 67.6763 14.9069C67.1378 15.1579 66.5387 15.2835 65.879 15.2835ZM66.505 12.5484C67.1647 12.5484 67.6965 12.337 68.1004 11.9142C68.5042 11.4782 68.7062 10.9298 68.7062 10.2692C68.7062 9.81994 68.6119 9.42355 68.4235 9.08001C68.2484 8.73648 67.9927 8.47222 67.6561 8.28724C67.333 8.08905 66.956 7.98995 66.5252 7.98995C66.0944 7.98995 65.7107 8.08905 65.3742 8.28724C65.0511 8.47222 64.7885 8.73648 64.5866 9.08001C64.3981 9.42355 64.3039 9.81994 64.3039 10.2692C64.3039 10.7052 64.3981 11.095 64.5866 11.4385C64.7751 11.782 65.0376 12.0529 65.3742 12.2511C65.7107 12.4493 66.0877 12.5484 66.505 12.5484ZM68.585 15.0853V12.4889L69.0495 10.1503L68.585 7.81158V5.45308H71.6141V15.0853H68.585Z" fill="#AE6CE1"/>
<path d="M57.9207 15.3033C57.3956 15.3033 56.9581 15.1249 56.608 14.7682C56.258 14.4114 56.083 13.982 56.083 13.4799C56.083 12.9514 56.258 12.5154 56.608 12.1718C56.9581 11.8151 57.3956 11.6367 57.9207 11.6367C58.4592 11.6367 58.8967 11.8151 59.2333 12.1718C59.5833 12.5154 59.7583 12.9514 59.7583 13.4799C59.7583 13.982 59.5833 14.4114 59.2333 14.7682C58.8967 15.1249 58.4592 15.3033 57.9207 15.3033Z" fill="#391952"/>
<path d="M49.3276 15.3033C48.3179 15.3033 47.4025 15.0853 46.5813 14.6493C45.7735 14.2001 45.134 13.5923 44.6628 12.8259C44.1917 12.0596 43.9561 11.2007 43.9561 10.2494C43.9561 9.29807 44.1917 8.44584 44.6628 7.6927C45.134 6.93957 45.7735 6.34499 46.5813 5.90896C47.389 5.45973 48.3045 5.23511 49.3276 5.23511C50.3508 5.23511 51.2663 5.45312 52.074 5.88915C52.8818 6.32517 53.5213 6.92636 53.9924 7.6927C54.4636 8.44584 54.6992 9.29807 54.6992 10.2494C54.6992 11.2007 54.4636 12.0596 53.9924 12.8259C53.5213 13.5923 52.8818 14.2001 52.074 14.6493C51.2663 15.0853 50.3508 15.3033 49.3276 15.3033ZM49.3276 12.5484C49.7719 12.5484 50.1623 12.456 50.4989 12.271C50.8355 12.0728 51.0912 11.8019 51.2663 11.4584C51.4547 11.1016 51.549 10.6986 51.549 10.2494C51.549 9.80016 51.4547 9.41038 51.2663 9.08006C51.0778 8.73652 50.8153 8.47227 50.4787 8.28728C50.1556 8.08909 49.7719 7.99 49.3276 7.99C48.8968 7.99 48.5132 8.08909 48.1766 8.28728C47.84 8.47227 47.5775 8.73652 47.389 9.08006C47.2005 9.42359 47.1063 9.81998 47.1063 10.2692C47.1063 10.7052 47.2005 11.1016 47.389 11.4584C47.5775 11.8019 47.84 12.0728 48.1766 12.271C48.5132 12.456 48.8968 12.5484 49.3276 12.5484Z" fill="#391952"/>
<path d="M38.2471 15.2836C37.5874 15.2836 36.9816 15.1514 36.4296 14.8872C35.8777 14.6097 35.4267 14.2464 35.0766 13.7971C34.7266 13.3347 34.5247 12.8194 34.4708 12.2512V8.18824C34.5247 7.62009 34.7266 7.118 35.0766 6.68197C35.4267 6.23273 35.8777 5.88259 36.4296 5.63155C36.9816 5.3805 37.5874 5.25498 38.2471 5.25498C39.176 5.25498 39.9972 5.47299 40.7107 5.90902C41.4377 6.34504 42.0032 6.93962 42.407 7.69276C42.8244 8.44589 43.033 9.30473 43.033 10.2693C43.033 11.2338 42.8244 12.0926 42.407 12.8458C42.0032 13.5989 41.4377 14.1935 40.7107 14.6295C39.9972 15.0655 39.176 15.2836 38.2471 15.2836ZM37.7018 12.5485C38.1326 12.5485 38.5096 12.4494 38.8327 12.2512C39.1693 12.053 39.4318 11.7821 39.6203 11.4386C39.8087 11.0951 39.903 10.7053 39.903 10.2693C39.903 9.82003 39.8087 9.42365 39.6203 9.08011C39.4318 8.73658 39.1693 8.47232 38.8327 8.28734C38.5096 8.08914 38.1326 7.99005 37.7018 7.99005C37.271 7.99005 36.8874 8.08914 36.5508 8.28734C36.2142 8.47232 35.9517 8.73658 35.7632 9.08011C35.5882 9.42365 35.5007 9.82003 35.5007 10.2693C35.5007 10.7185 35.5949 11.1149 35.7834 11.4584C35.9719 11.802 36.2277 12.0728 36.5508 12.271C36.8874 12.456 37.271 12.5485 37.7018 12.5485ZM32.5928 15.0854V0.696533H35.6824V7.81167L35.1776 10.1504L35.6421 12.489V15.0854H32.5928Z" fill="#391952"/>
<path d="M25.6831 15.3033C24.6734 15.3033 23.758 15.0853 22.9367 14.6493C22.129 14.2001 21.4895 13.5923 21.0183 12.8259C20.5471 12.0596 20.3115 11.2007 20.3115 10.2494C20.3115 9.29807 20.5471 8.44584 21.0183 7.6927C21.4895 6.93957 22.129 6.34499 22.9367 5.90896C23.7445 5.45973 24.66 5.23511 25.6831 5.23511C26.7063 5.23511 27.6217 5.45312 28.4295 5.88915C29.2372 6.32517 29.8767 6.92636 30.3479 7.6927C30.8191 8.44584 31.0547 9.29807 31.0547 10.2494C31.0547 11.2007 30.8191 12.0596 30.3479 12.8259C29.8767 13.5923 29.2372 14.2001 28.4295 14.6493C27.6217 15.0853 26.7063 15.3033 25.6831 15.3033ZM25.6831 12.5484C26.1274 12.5484 26.5178 12.456 26.8544 12.271C27.1909 12.0728 27.4467 11.8019 27.6217 11.4584C27.8102 11.1016 27.9044 10.6986 27.9044 10.2494C27.9044 9.80016 27.8102 9.41038 27.6217 9.08006C27.4333 8.73652 27.1707 8.47227 26.8342 8.28728C26.5111 8.08909 26.1274 7.99 25.6831 7.99C25.2523 7.99 24.8686 8.08909 24.5321 8.28728C24.1955 8.47227 23.933 8.73652 23.7445 9.08006C23.556 9.42359 23.4618 9.81998 23.4618 10.2692C23.4618 10.7052 23.556 11.1016 23.7445 11.4584C23.933 11.8019 24.1955 12.0728 24.5321 12.271C24.8686 12.456 25.2523 12.5484 25.6831 12.5484Z" fill="#391952"/>
<path d="M12.6152 15.0853V5.45308H15.7049V15.0853H12.6152ZM15.7049 9.79351L14.4125 8.80254C14.6683 7.67945 15.0991 6.8074 15.7049 6.18639C16.3107 5.56539 17.1521 5.25488 18.2292 5.25488C18.7003 5.25488 19.111 5.32755 19.461 5.47289C19.8245 5.60502 20.1408 5.81643 20.4101 6.10711L18.5724 8.38634C18.4378 8.241 18.2695 8.12869 18.0676 8.04941C17.8657 7.97013 17.6368 7.93049 17.381 7.93049C16.8694 7.93049 16.4588 8.08905 16.1492 8.40616C15.853 8.71005 15.7049 9.1725 15.7049 9.79351Z" fill="#391952"/>
<path d="M4.78597 15.2836C3.85704 15.2836 3.02909 15.0655 2.30211 14.6295C1.58859 14.1935 1.02316 13.5989 0.605819 12.8458C0.20194 12.0926 0 11.2338 0 10.2693C0 9.30473 0.20194 8.44589 0.605819 7.69276C1.02316 6.93962 1.58859 6.34504 2.30211 5.90902C3.02909 5.47299 3.85704 5.25498 4.78597 5.25498C5.4591 5.25498 6.06492 5.3805 6.60342 5.63155C7.15539 5.88259 7.60639 6.23273 7.95642 6.68197C8.31991 7.118 8.52185 7.62009 8.56223 8.18824V12.2512C8.52185 12.8194 8.32664 13.3347 7.97661 13.7971C7.62658 14.2464 7.17558 14.6097 6.62362 14.8872C6.07165 15.1514 5.4591 15.2836 4.78597 15.2836ZM5.3312 12.5485C5.77547 12.5485 6.15915 12.456 6.48226 12.271C6.80536 12.0728 7.06115 11.802 7.24963 11.4584C7.4381 11.1149 7.53234 10.7185 7.53234 10.2693C7.53234 9.82003 7.4381 9.43025 7.24963 9.09993C7.07461 8.7564 6.81882 8.48553 6.48226 8.28734C6.15915 8.08914 5.7822 7.99005 5.3514 7.99005C4.92059 7.99005 4.53691 8.08914 4.20034 8.28734C3.87724 8.48553 3.61472 8.7564 3.41278 9.09993C3.2243 9.44347 3.13006 9.83325 3.13006 10.2693C3.13006 10.7053 3.2243 11.0951 3.41278 11.4386C3.60125 11.7821 3.86378 12.053 4.20034 12.2512C4.53691 12.4494 4.91386 12.5485 5.3312 12.5485ZM10.4403 15.0854H7.41118V12.489L7.87564 10.1504L7.3506 7.81167V0.696533H10.4403V15.0854Z" fill="#391952"/>
</svg>
