<svg width="513" height="236" viewBox="0 0 513 236" fill="none" xmlns="http://www.w3.org/2000/svg">
<g clip-path="url(#clip0_752_8447)">
<g filter="url(#filter0_d_752_8447)">
<rect width="513.078" height="456.069" rx="7.12609" transform="matrix(-1 0 0 1 513.078 -0.00695801)" fill="white" fill-opacity="0.92" shape-rendering="crispEdges"/>
</g>
<path d="M0 7.11901C0 3.18338 3.19046 -0.00708008 7.12609 -0.00708008L505.952 -0.00708008C509.888 -0.00708008 513.078 3.18338 513.078 7.11901V57.0016H0L0 7.11901Z" fill="#12141D"/>
<circle cx="438.83" cy="29.9232" r="5.70087" fill="#F23936"/>
<circle cx="458.783" cy="29.923" r="5.70087" fill="#FEA25F"/>
<circle cx="478.736" cy="29.923" r="5.70087" fill="#714EFF"/>
<path d="M24.9918 23.2355H27.7001L30.3078 28.1606H30.4195L33.0273 23.2355H35.7355L31.5643 30.6288V34.6716H29.1631V30.6288L24.9918 23.2355ZM39.0901 34.8392C38.2228 34.8392 37.4726 34.6549 36.8398 34.2863C36.2106 33.9141 35.7248 33.3966 35.3823 32.734C35.0399 32.0676 34.8686 31.2951 34.8686 30.4166C34.8686 29.5306 35.0399 28.7563 35.3823 28.0936C35.7248 27.4273 36.2106 26.9098 36.8398 26.5413C37.4726 26.169 38.2228 25.9829 39.0901 25.9829C39.9575 25.9829 40.7058 26.169 41.3349 26.5413C41.9678 26.9098 42.4555 27.4273 42.7979 28.0936C43.1404 28.7563 43.3117 29.5306 43.3117 30.4166C43.3117 31.2951 43.1404 32.0676 42.7979 32.734C42.4555 33.3966 41.9678 33.9141 41.3349 34.2863C40.7058 34.6549 39.9575 34.8392 39.0901 34.8392ZM39.1013 32.9964C39.4959 32.9964 39.8254 32.8847 40.0897 32.6614C40.354 32.4343 40.5532 32.1253 40.6872 31.7344C40.8249 31.3435 40.8938 30.8987 40.8938 30.3998C40.8938 29.901 40.8249 29.4561 40.6872 29.0653C40.5532 28.6744 40.354 28.3654 40.0897 28.1383C39.8254 27.9112 39.4959 27.7977 39.1013 27.7977C38.703 27.7977 38.3679 27.9112 38.0962 28.1383C37.8281 28.3654 37.6253 28.6744 37.4875 29.0653C37.3535 29.4561 37.2865 29.901 37.2865 30.3998C37.2865 30.8987 37.3535 31.3435 37.4875 31.7344C37.6253 32.1253 37.8281 32.4343 38.0962 32.6614C38.3679 32.8847 38.703 32.9964 39.1013 32.9964ZM50.3587 31.0197V26.0945H52.7375V34.6716H50.4537V33.1137H50.3643C50.1707 33.6162 49.8487 34.0202 49.3983 34.3254C48.9516 34.6307 48.4062 34.7833 47.7622 34.7833C47.1889 34.7833 46.6844 34.653 46.2489 34.3924C45.8133 34.1318 45.4727 33.7614 45.227 33.2812C44.985 32.801 44.8622 32.2258 44.8585 31.5557V26.0945H47.2373V31.1314C47.241 31.6376 47.3769 32.0378 47.6449 32.3319C47.9129 32.626 48.2722 32.7731 48.7226 32.7731C49.0093 32.7731 49.2773 32.7079 49.5267 32.5776C49.7761 32.4436 49.9772 32.2463 50.1298 31.9857C50.2861 31.7251 50.3625 31.4031 50.3587 31.0197ZM54.6403 34.6716V26.0945H56.9465V27.5911H57.0358C57.1922 27.0587 57.4546 26.6567 57.8232 26.3849C58.1917 26.1094 58.6161 25.9717 59.0964 25.9717C59.2155 25.9717 59.3439 25.9791 59.4817 25.994C59.6194 26.0089 59.7404 26.0294 59.8446 26.0555V28.1662C59.7329 28.1327 59.5784 28.1029 59.3811 28.0769C59.1838 28.0508 59.0033 28.0378 58.8395 28.0378C58.4896 28.0378 58.1768 28.1141 57.9014 28.2667C57.6296 28.4156 57.4137 28.6241 57.2536 28.8922C57.0973 29.1602 57.0191 29.4692 57.0191 29.8191V34.6716H54.6403ZM67.3328 34.6716L64.0606 23.2355H66.7018L68.5948 31.1816H68.6897L70.7782 23.2355H73.0397L75.1225 31.1984H75.2231L77.116 23.2355H79.7573L76.485 34.6716H74.1286L71.9508 27.1946H71.8615L69.6893 34.6716H67.3328ZM83.9607 34.8392C83.0933 34.8392 82.3432 34.6549 81.7103 34.2863C81.0812 33.9141 80.5954 33.3966 80.2529 32.734C79.9104 32.0676 79.7391 31.2951 79.7391 30.4166C79.7391 29.5306 79.9104 28.7563 80.2529 28.0936C80.5954 27.4273 81.0812 26.9098 81.7103 26.5413C82.3432 26.169 83.0933 25.9829 83.9607 25.9829C84.8281 25.9829 85.5763 26.169 86.2055 26.5413C86.8383 26.9098 87.326 27.4273 87.6685 28.0936C88.011 28.7563 88.1822 29.5306 88.1822 30.4166C88.1822 31.2951 88.011 32.0676 87.6685 32.734C87.326 33.3966 86.8383 33.9141 86.2055 34.2863C85.5763 34.6549 84.8281 34.8392 83.9607 34.8392ZM83.9718 32.9964C84.3665 32.9964 84.6959 32.8847 84.9602 32.6614C85.2245 32.4343 85.4237 32.1253 85.5577 31.7344C85.6955 31.3435 85.7643 30.8987 85.7643 30.3998C85.7643 29.901 85.6955 29.4561 85.5577 29.0653C85.4237 28.6744 85.2245 28.3654 84.9602 28.1383C84.6959 27.9112 84.3665 27.7977 83.9718 27.7977C83.5735 27.7977 83.2385 27.9112 82.9667 28.1383C82.6987 28.3654 82.4958 28.6744 82.3581 29.0653C82.224 29.4561 82.157 29.901 82.157 30.3998C82.157 30.8987 82.224 31.3435 82.3581 31.7344C82.4958 32.1253 82.6987 32.4343 82.9667 32.6614C83.2385 32.8847 83.5735 32.9964 83.9718 32.9964ZM89.729 34.6716V26.0945H92.0352V27.5911H92.1245C92.2809 27.0587 92.5433 26.6567 92.9119 26.3849C93.2804 26.1094 93.7048 25.9717 94.185 25.9717C94.3042 25.9717 94.4326 25.9791 94.5703 25.994C94.7081 26.0089 94.8291 26.0294 94.9333 26.0555V28.1662C94.8216 28.1327 94.6671 28.1029 94.4698 28.0769C94.2725 28.0508 94.092 28.0378 93.9282 28.0378C93.5783 28.0378 93.2655 28.1141 92.9901 28.2667C92.7183 28.4156 92.5024 28.6241 92.3423 28.8922C92.186 29.1602 92.1078 29.4692 92.1078 29.8191V34.6716H89.729ZM98.3186 32.2035L98.3242 29.35H98.6704L101.418 26.0945H104.148L100.457 30.4054H99.8933L98.3186 32.2035ZM96.1632 34.6716V23.2355H98.542V34.6716H96.1632ZM101.524 34.6716L98.9999 30.9359L100.586 29.2551L104.31 34.6716H101.524ZM109.928 26.0945V27.8814H104.634V26.0945H109.928ZM105.846 34.6716V25.4747C105.846 24.853 105.967 24.3374 106.209 23.9279C106.455 23.5184 106.79 23.2113 107.214 23.0066C107.638 22.8018 108.12 22.6995 108.66 22.6995C109.025 22.6995 109.358 22.7274 109.66 22.7832C109.965 22.8391 110.192 22.8893 110.341 22.934L109.917 24.7209C109.824 24.6911 109.708 24.6632 109.57 24.6371C109.436 24.6111 109.299 24.598 109.157 24.598C108.807 24.598 108.563 24.6799 108.426 24.8437C108.288 25.0038 108.219 25.229 108.219 25.5194V34.6716H105.846ZM113.76 23.2355V34.6716H111.381V23.2355H113.76ZM119.541 34.8392C118.673 34.8392 117.923 34.6549 117.29 34.2863C116.661 33.9141 116.175 33.3966 115.833 32.734C115.49 32.0676 115.319 31.2951 115.319 30.4166C115.319 29.5306 115.49 28.7563 115.833 28.0936C116.175 27.4273 116.661 26.9098 117.29 26.5413C117.923 26.169 118.673 25.9829 119.541 25.9829C120.408 25.9829 121.156 26.169 121.786 26.5413C122.418 26.9098 122.906 27.4273 123.249 28.0936C123.591 28.7563 123.762 29.5306 123.762 30.4166C123.762 31.2951 123.591 32.0676 123.249 32.734C122.906 33.3966 122.418 33.9141 121.786 34.2863C121.156 34.6549 120.408 34.8392 119.541 34.8392ZM119.552 32.9964C119.947 32.9964 120.276 32.8847 120.54 32.6614C120.805 32.4343 121.004 32.1253 121.138 31.7344C121.276 31.3435 121.344 30.8987 121.344 30.3998C121.344 29.901 121.276 29.4561 121.138 29.0653C121.004 28.6744 120.805 28.3654 120.54 28.1383C120.276 27.9112 119.947 27.7977 119.552 27.7977C119.154 27.7977 118.819 27.9112 118.547 28.1383C118.279 28.3654 118.076 28.6744 117.938 29.0653C117.804 29.4561 117.737 29.901 117.737 30.3998C117.737 30.8987 117.804 31.3435 117.938 31.7344C118.076 32.1253 118.279 32.4343 118.547 32.6614C118.819 32.8847 119.154 32.9964 119.552 32.9964ZM126.786 34.6716L124.452 26.0945H126.859L128.188 31.8573H128.266L129.651 26.0945H132.013L133.42 31.8238H133.492L134.799 26.0945H137.2L134.872 34.6716H132.353L130.879 29.2775H130.773L129.299 34.6716H126.786ZM146.207 34.6716H142.153V23.2355H146.241C147.391 23.2355 148.381 23.4645 149.212 23.9224C150.042 24.3765 150.68 25.0299 151.127 25.8824C151.577 26.7349 151.803 27.7549 151.803 28.9424C151.803 30.1337 151.577 31.1574 151.127 32.0136C150.68 32.8698 150.038 33.5269 149.2 33.9848C148.367 34.4427 147.369 34.6716 146.207 34.6716ZM144.571 32.6H146.107C146.822 32.6 147.423 32.4734 147.91 32.2202C148.402 31.9634 148.77 31.5669 149.016 31.0308C149.266 30.491 149.39 29.7949 149.39 28.9424C149.39 28.0974 149.266 27.4068 149.016 26.8707C148.77 26.3347 148.404 25.9401 147.916 25.6869C147.428 25.4338 146.827 25.3072 146.112 25.3072H144.571V32.6ZM155.995 34.8336C155.448 34.8336 154.96 34.7386 154.532 34.5488C154.104 34.3552 153.765 34.0704 153.515 33.6944C153.27 33.3147 153.147 32.8419 153.147 32.2761C153.147 31.7996 153.234 31.3994 153.409 31.0755C153.584 30.7516 153.823 30.491 154.124 30.2937C154.426 30.0964 154.768 29.9475 155.152 29.847C155.539 29.7465 155.945 29.6758 156.369 29.6348C156.868 29.5827 157.27 29.5343 157.575 29.4896C157.88 29.4412 158.102 29.3705 158.24 29.2775C158.377 29.1844 158.446 29.0466 158.446 28.8642V28.8307C158.446 28.4771 158.334 28.2035 158.111 28.0099C157.891 27.8163 157.579 27.7195 157.173 27.7195C156.745 27.7195 156.404 27.8144 156.151 28.0043C155.898 28.1904 155.73 28.425 155.649 28.7079L153.448 28.5292C153.56 28.008 153.78 27.5576 154.107 27.1779C154.435 26.7944 154.857 26.5003 155.375 26.2956C155.896 26.0871 156.499 25.9829 157.184 25.9829C157.661 25.9829 158.117 26.0387 158.552 26.1504C158.992 26.2621 159.381 26.4352 159.719 26.6697C160.062 26.9042 160.332 27.2058 160.529 27.5743C160.726 27.9391 160.825 28.3766 160.825 28.8866V34.6716H158.569V33.4822H158.502C158.364 33.7503 158.18 33.9867 157.949 34.1914C157.718 34.3924 157.441 34.5506 157.117 34.666C156.793 34.7777 156.419 34.8336 155.995 34.8336ZM156.676 33.1919C157.026 33.1919 157.335 33.123 157.603 32.9853C157.871 32.8438 158.081 32.6539 158.234 32.4157C158.387 32.1774 158.463 31.9075 158.463 31.606V30.6958C158.388 30.7442 158.286 30.7889 158.156 30.8298C158.029 30.867 157.886 30.9024 157.726 30.9359C157.566 30.9657 157.406 30.9936 157.246 31.0197C157.086 31.042 156.94 31.0625 156.81 31.0811C156.531 31.122 156.287 31.1872 156.079 31.2765C155.87 31.3659 155.708 31.4869 155.593 31.6395C155.477 31.7884 155.42 31.9745 155.42 32.1979C155.42 32.5218 155.537 32.7693 155.771 32.9406C156.01 33.1081 156.311 33.1919 156.676 33.1919ZM167.233 26.0945V27.8814H162.067V26.0945H167.233ZM163.24 24.0396H165.619V32.036C165.619 32.2556 165.652 32.4268 165.719 32.5497C165.786 32.6688 165.879 32.7526 165.999 32.801C166.121 32.8494 166.263 32.8736 166.423 32.8736C166.535 32.8736 166.646 32.8643 166.758 32.8457C166.87 32.8233 166.955 32.8066 167.015 32.7954L167.389 34.5655C167.27 34.6028 167.102 34.6456 166.886 34.694C166.671 34.7461 166.408 34.7777 166.099 34.7889C165.526 34.8112 165.023 34.7349 164.591 34.56C164.163 34.385 163.83 34.1132 163.592 33.7447C163.354 33.3761 163.236 32.9108 163.24 32.3487V24.0396ZM171.228 34.8336C170.681 34.8336 170.193 34.7386 169.765 34.5488C169.337 34.3552 168.998 34.0704 168.749 33.6944C168.503 33.3147 168.38 32.8419 168.38 32.2761C168.38 31.7996 168.468 31.3994 168.643 31.0755C168.818 30.7516 169.056 30.491 169.357 30.2937C169.659 30.0964 170.001 29.9475 170.385 29.847C170.772 29.7465 171.178 29.6758 171.602 29.6348C172.101 29.5827 172.503 29.5343 172.808 29.4896C173.114 29.4412 173.335 29.3705 173.473 29.2775C173.611 29.1844 173.679 29.0466 173.679 28.8642V28.8307C173.679 28.4771 173.568 28.2035 173.344 28.0099C173.125 27.8163 172.812 27.7195 172.406 27.7195C171.978 27.7195 171.638 27.8144 171.384 28.0043C171.131 28.1904 170.964 28.425 170.882 28.7079L168.682 28.5292C168.793 28.008 169.013 27.5576 169.341 27.1779C169.668 26.7944 170.091 26.5003 170.608 26.2956C171.129 26.0871 171.732 25.9829 172.417 25.9829C172.894 25.9829 173.35 26.0387 173.786 26.1504C174.225 26.2621 174.614 26.4352 174.953 26.6697C175.295 26.9042 175.565 27.2058 175.762 27.5743C175.96 27.9391 176.058 28.3766 176.058 28.8866V34.6716H173.802V33.4822H173.735C173.598 33.7503 173.413 33.9867 173.182 34.1914C172.952 34.3924 172.674 34.5506 172.35 34.666C172.027 34.7777 171.652 34.8336 171.228 34.8336ZM171.909 33.1919C172.259 33.1919 172.568 33.123 172.836 32.9853C173.104 32.8438 173.315 32.6539 173.467 32.4157C173.62 32.1774 173.696 31.9075 173.696 31.606V30.6958C173.622 30.7442 173.519 30.7889 173.389 30.8298C173.262 30.867 173.119 30.9024 172.959 30.9359C172.799 30.9657 172.639 30.9936 172.479 31.0197C172.319 31.042 172.174 31.0625 172.043 31.0811C171.764 31.122 171.52 31.1872 171.312 31.2765C171.103 31.3659 170.941 31.4869 170.826 31.6395C170.711 31.7884 170.653 31.9745 170.653 32.1979C170.653 32.5218 170.77 32.7693 171.005 32.9406C171.243 33.1081 171.544 33.1919 171.909 33.1919Z" fill="white"/>
<path d="M414.903 84.4206L417.653 92.219H417.762L420.512 84.4206H421.688L418.286 93.6846H417.128L413.727 84.4206H414.903ZM422.986 93.6846V86.7366H424.054V93.6846H422.986ZM423.529 85.5786C423.321 85.5786 423.141 85.5077 422.991 85.366C422.843 85.2242 422.769 85.0538 422.769 84.8548C422.769 84.6558 422.843 84.4854 422.991 84.3437C423.141 84.2019 423.321 84.1311 423.529 84.1311C423.737 84.1311 423.915 84.2019 424.063 84.3437C424.213 84.4854 424.289 84.6558 424.289 84.8548C424.289 85.0538 424.213 85.2242 424.063 85.366C423.915 85.5077 423.737 85.5786 423.529 85.5786ZM428.922 93.8293C428.253 93.8293 427.675 93.6816 427.19 93.386C426.707 93.0875 426.335 92.6713 426.072 92.1376C425.813 91.6008 425.683 90.9765 425.683 90.2648C425.683 89.5532 425.813 88.9259 426.072 88.3831C426.335 87.8373 426.699 87.4121 427.167 87.1075C427.637 86.7999 428.186 86.6461 428.813 86.6461C429.175 86.6461 429.533 86.7064 429.886 86.827C430.238 86.9477 430.56 87.1437 430.849 87.4151C431.139 87.6835 431.369 88.0393 431.541 88.4826C431.713 88.9259 431.799 89.4717 431.799 90.1201V90.5724H426.443V89.6497H430.713C430.713 89.2576 430.635 88.9078 430.478 88.6002C430.324 88.2926 430.104 88.0499 429.818 87.8719C429.534 87.694 429.199 87.6051 428.813 87.6051C428.388 87.6051 428.02 87.7106 427.71 87.9217C427.402 88.1298 427.165 88.4012 427 88.7359C426.834 89.0707 426.751 89.4295 426.751 89.8125V90.4277C426.751 90.9524 426.841 91.3972 427.022 91.7621C427.206 92.124 427.461 92.3999 427.787 92.5899C428.112 92.7769 428.491 92.8704 428.922 92.8704C429.202 92.8704 429.456 92.8311 429.682 92.7527C429.911 92.6713 430.109 92.5507 430.275 92.3909C430.44 92.228 430.569 92.026 430.659 91.7847L431.69 92.0742C431.582 92.424 431.399 92.7316 431.143 92.997C430.887 93.2594 430.57 93.4644 430.193 93.6122C429.816 93.7569 429.392 93.8293 428.922 93.8293ZM434.997 93.6846L432.88 86.7366H434.002L435.504 92.0561H435.576L437.06 86.7366H438.2L439.665 92.038H439.738L441.239 86.7366H442.361L440.244 93.6846H439.195L437.675 88.3469H437.566L436.046 93.6846H434.997ZM450.359 93.6846H447.5V84.4206H450.485C451.384 84.4206 452.153 84.606 452.792 84.9769C453.432 85.3449 453.922 85.8741 454.262 86.5647C454.603 87.2522 454.773 88.0755 454.773 89.0345C454.773 89.9995 454.602 90.8303 454.258 91.5269C453.914 92.2205 453.413 92.7542 452.756 93.1282C452.099 93.4991 451.299 93.6846 450.359 93.6846ZM448.622 92.6894H450.286C451.052 92.6894 451.687 92.5416 452.191 92.2461C452.694 91.9506 453.07 91.5299 453.317 90.9841C453.564 90.4382 453.688 89.7884 453.688 89.0345C453.688 88.2866 453.566 87.6428 453.321 87.103C453.077 86.5601 452.712 86.144 452.227 85.8545C451.741 85.562 451.137 85.4157 450.413 85.4157H448.622V92.6894ZM459.424 93.8293C458.754 93.8293 458.177 93.6816 457.691 93.386C457.209 93.0875 456.836 92.6713 456.574 92.1376C456.314 91.6008 456.185 90.9765 456.185 90.2648C456.185 89.5532 456.314 88.9259 456.574 88.3831C456.836 87.8373 457.201 87.4121 457.668 87.1075C458.139 86.7999 458.688 86.6461 459.315 86.6461C459.677 86.6461 460.034 86.7064 460.387 86.827C460.74 86.9477 461.061 87.1437 461.351 87.4151C461.64 87.6835 461.871 88.0393 462.043 88.4826C462.215 88.9259 462.3 89.4717 462.3 90.1201V90.5724H456.945V89.6497H461.215C461.215 89.2576 461.136 88.9078 460.98 88.6002C460.826 88.2926 460.606 88.0499 460.319 87.8719C460.036 87.694 459.701 87.6051 459.315 87.6051C458.89 87.6051 458.522 87.7106 458.211 87.9217C457.904 88.1298 457.667 88.4012 457.501 88.7359C457.335 89.0707 457.252 89.4295 457.252 89.8125V90.4277C457.252 90.9524 457.343 91.3972 457.524 91.7621C457.708 92.124 457.963 92.3999 458.288 92.5899C458.614 92.7769 458.992 92.8704 459.424 92.8704C459.704 92.8704 459.957 92.8311 460.184 92.7527C460.413 92.6713 460.61 92.5507 460.776 92.3909C460.942 92.228 461.07 92.026 461.161 91.7847L462.192 92.0742C462.083 92.424 461.901 92.7316 461.645 92.997C461.388 93.2594 461.072 93.4644 460.695 93.6122C460.318 93.7569 459.894 93.8293 459.424 93.8293ZM466.946 86.7366V87.6413H463.345V86.7366H466.946ZM464.395 85.0719H465.462V91.6943C465.462 91.9958 465.506 92.222 465.594 92.3728C465.684 92.5205 465.799 92.6201 465.937 92.6713C466.079 92.7196 466.228 92.7437 466.385 92.7437C466.503 92.7437 466.599 92.7377 466.675 92.7256C466.75 92.7105 466.81 92.6985 466.856 92.6894L467.073 93.6484C467 93.6755 466.899 93.7027 466.77 93.7298C466.64 93.76 466.476 93.775 466.277 93.775C465.975 93.775 465.68 93.7102 465.39 93.5805C465.104 93.4509 464.865 93.2533 464.675 92.988C464.488 92.7226 464.395 92.3879 464.395 91.9838V85.0719ZM470.596 93.8474C470.156 93.8474 469.757 93.7645 469.398 93.5986C469.039 93.4297 468.754 93.187 468.543 92.8704C468.332 92.5507 468.226 92.1647 468.226 91.7123C468.226 91.3143 468.305 90.9916 468.461 90.7443C468.618 90.494 468.828 90.298 469.09 90.1563C469.353 90.0146 469.642 89.909 469.959 89.8396C470.278 89.7673 470.599 89.71 470.922 89.6678C471.344 89.6135 471.687 89.5728 471.949 89.5456C472.214 89.5155 472.407 89.4657 472.528 89.3963C472.652 89.327 472.713 89.2064 472.713 89.0345V88.9983C472.713 88.552 472.591 88.2052 472.347 87.9579C472.106 87.7106 471.739 87.587 471.248 87.587C470.738 87.587 470.339 87.6985 470.049 87.9217C469.76 88.1449 469.556 88.3831 469.438 88.6364L468.425 88.2745C468.606 87.8523 468.847 87.5236 469.149 87.2884C469.454 87.0502 469.785 86.8843 470.144 86.7908C470.506 86.6943 470.862 86.6461 471.212 86.6461C471.435 86.6461 471.691 86.6732 471.981 86.7275C472.273 86.7788 472.555 86.8858 472.827 87.0487C473.101 87.2115 473.329 87.4573 473.51 87.786C473.691 88.1147 473.781 88.555 473.781 89.1068V93.6846H472.713V92.7437H472.659C472.587 92.8945 472.466 93.0558 472.297 93.2277C472.128 93.3996 471.904 93.5459 471.623 93.6665C471.343 93.7871 471.001 93.8474 470.596 93.8474ZM470.759 92.8884C471.182 92.8884 471.537 92.8055 471.827 92.6397C472.119 92.4738 472.34 92.2597 472.487 91.9973C472.638 91.735 472.713 91.459 472.713 91.1695V90.1925C472.668 90.2468 472.569 90.2965 472.415 90.3417C472.264 90.384 472.089 90.4217 471.89 90.4548C471.694 90.485 471.503 90.5121 471.316 90.5363C471.132 90.5574 470.982 90.5755 470.868 90.5905C470.59 90.6267 470.331 90.6855 470.09 90.767C469.852 90.8454 469.659 90.9645 469.511 91.1243C469.366 91.2811 469.294 91.4952 469.294 91.7666C469.294 92.1376 469.431 92.418 469.705 92.608C469.983 92.795 470.334 92.8884 470.759 92.8884ZM475.729 93.6846V86.7366H476.797V93.6846H475.729ZM476.272 85.5786C476.064 85.5786 475.885 85.5077 475.734 85.366C475.586 85.2242 475.512 85.0538 475.512 84.8548C475.512 84.6558 475.586 84.4854 475.734 84.3437C475.885 84.2019 476.064 84.1311 476.272 84.1311C476.48 84.1311 476.658 84.2019 476.806 84.3437C476.957 84.4854 477.032 84.6558 477.032 84.8548C477.032 85.0538 476.957 85.2242 476.806 85.366C476.658 85.5077 476.48 85.5786 476.272 85.5786ZM479.82 84.4206V93.6846H478.752V84.4206H479.82ZM486.697 88.2926L485.738 88.564C485.677 88.4042 485.588 88.2489 485.471 88.0981C485.356 87.9443 485.199 87.8177 485 87.7182C484.801 87.6186 484.546 87.5689 484.236 87.5689C483.811 87.5689 483.456 87.6669 483.173 87.8629C482.892 88.0559 482.752 88.3017 482.752 88.6002C482.752 88.8656 482.849 89.0752 483.042 89.229C483.235 89.3828 483.536 89.5109 483.946 89.6135L484.978 89.8668C485.599 90.0176 486.062 90.2483 486.366 90.5589C486.671 90.8665 486.823 91.263 486.823 91.7485C486.823 92.1466 486.709 92.5024 486.479 92.8161C486.253 93.1297 485.937 93.377 485.529 93.5579C485.122 93.7389 484.649 93.8293 484.109 93.8293C483.4 93.8293 482.814 93.6755 482.35 93.3679C481.885 93.0603 481.591 92.611 481.467 92.0199L482.481 91.7666C482.577 92.1406 482.76 92.421 483.028 92.608C483.299 92.795 483.654 92.8884 484.091 92.8884C484.589 92.8884 484.984 92.7829 485.276 92.5718C485.572 92.3577 485.719 92.1014 485.719 91.8028C485.719 91.5616 485.635 91.3595 485.466 91.1967C485.297 91.0308 485.038 90.9072 484.688 90.8258L483.53 90.5543C482.894 90.4036 482.426 90.1699 482.128 89.8532C481.832 89.5336 481.685 89.134 481.685 88.6545C481.685 88.2625 481.795 87.9157 482.015 87.6141C482.238 87.3125 482.541 87.0758 482.924 86.9039C483.31 86.732 483.747 86.6461 484.236 86.6461C484.923 86.6461 485.463 86.7969 485.855 87.0984C486.25 87.4 486.531 87.7981 486.697 88.2926Z" fill="#151522"/>
<path d="M45.4683 87.0863H43.3282C43.2891 86.8094 43.2093 86.5635 43.0888 86.3485C42.9683 86.1303 42.8136 85.9446 42.6246 85.7915C42.4357 85.6384 42.2175 85.5211 41.9699 85.4397C41.7256 85.3583 41.4601 85.3175 41.1735 85.3175C40.6556 85.3175 40.2044 85.4462 39.8201 85.7035C39.4357 85.9576 39.1376 86.329 38.9259 86.8176C38.7142 87.3029 38.6083 87.8925 38.6083 88.5863C38.6083 89.2997 38.7142 89.899 38.9259 90.3844C39.1409 90.8697 39.4406 91.2362 39.8249 91.4837C40.2093 91.7313 40.6539 91.8551 41.1588 91.8551C41.4422 91.8551 41.7044 91.8176 41.9455 91.7427C42.1898 91.6678 42.4064 91.5586 42.5953 91.4153C42.7842 91.2687 42.9406 91.0912 43.0644 90.8827C43.1914 90.6743 43.2794 90.4365 43.3282 90.1694L45.4683 90.1791C45.4129 90.6384 45.2745 91.0814 45.053 91.5081C44.8348 91.9316 44.54 92.3111 44.1686 92.6466C43.8005 92.9788 43.3608 93.2427 42.8494 93.4381C42.3412 93.6303 41.7663 93.7264 41.1246 93.7264C40.2321 93.7264 39.4341 93.5245 38.7305 93.1205C38.0301 92.7166 37.4764 92.1319 37.0692 91.3665C36.6653 90.601 36.4633 89.6743 36.4633 88.5863C36.4633 87.4951 36.6686 86.5667 37.079 85.8013C37.4894 85.0358 38.0464 84.4527 38.75 84.0521C39.4536 83.6482 40.2451 83.4462 41.1246 83.4462C41.7044 83.4462 42.2419 83.5276 42.737 83.6905C43.2354 83.8534 43.6768 84.0912 44.0611 84.4039C44.4455 84.7133 44.7582 85.0928 44.9992 85.5423C45.2435 85.9918 45.3999 86.5065 45.4683 87.0863ZM52.4138 86.4609C52.3747 86.0667 52.207 85.7605 51.9105 85.5423C51.6141 85.3241 51.2118 85.2149 50.7037 85.2149C50.3584 85.2149 50.0669 85.2638 49.8291 85.3615C49.5913 85.456 49.4089 85.5879 49.2819 85.7573C49.1581 85.9267 49.0962 86.1189 49.0962 86.3338C49.0897 86.513 49.1271 86.6693 49.2086 86.8029C49.2933 86.9365 49.4089 87.0521 49.5555 87.1498C49.7021 87.2443 49.8714 87.3273 50.0636 87.399C50.2558 87.4674 50.461 87.526 50.6793 87.5749L51.5783 87.7899C52.0148 87.8876 52.4154 88.0179 52.7803 88.1808C53.1451 88.3436 53.461 88.544 53.7281 88.7817C53.9952 89.0195 54.2021 89.2997 54.3487 89.6221C54.4985 89.9446 54.5751 90.3143 54.5783 90.7313C54.5751 91.3437 54.4187 91.8746 54.1093 92.3241C53.8031 92.7704 53.3601 93.1173 52.7803 93.3648C52.2037 93.6091 51.5083 93.7313 50.6939 93.7313C49.8861 93.7313 49.1825 93.6075 48.5832 93.36C47.9871 93.1124 47.5213 92.7459 47.1857 92.2606C46.8535 91.772 46.6792 91.1678 46.6629 90.4479H48.7102C48.733 90.7834 48.8291 91.0635 48.9985 91.2883C49.1711 91.5098 49.4007 91.6775 49.6874 91.7915C49.9773 91.9023 50.3047 91.9577 50.6695 91.9577C51.0278 91.9577 51.3389 91.9055 51.6027 91.8013C51.8698 91.6971 52.0767 91.5521 52.2232 91.3665C52.3698 91.1808 52.4431 90.9674 52.4431 90.7264C52.4431 90.5016 52.3763 90.3127 52.2428 90.1596C52.1125 90.0065 51.9203 89.8762 51.6662 89.7687C51.4154 89.6612 51.1076 89.5635 50.7428 89.4756L49.6532 89.2019C48.8095 88.9967 48.1434 88.6759 47.6548 88.2394C47.1662 87.8029 46.9235 87.215 46.9268 86.4755C46.9235 85.8697 47.0848 85.3403 47.4105 84.8876C47.7395 84.4348 48.1906 84.0814 48.7639 83.8273C49.3372 83.5732 49.9887 83.4462 50.7183 83.4462C51.461 83.4462 52.1092 83.5732 52.663 83.8273C53.22 84.0814 53.6532 84.4348 53.9627 84.8876C54.2721 85.3403 54.4317 85.8648 54.4415 86.4609H52.4138ZM56.0014 93.5896V83.583H59.9493C60.7083 83.583 61.3548 83.728 61.889 84.0179C62.4233 84.3045 62.8304 84.7035 63.1106 85.2149C63.3939 85.7231 63.5356 86.3094 63.5356 86.9739C63.5356 87.6384 63.3923 88.2247 63.1057 88.7329C62.819 89.241 62.4037 89.6368 61.8597 89.9202C61.319 90.2036 60.6643 90.3453 59.8955 90.3453H57.3792V88.6498H59.5535C59.9607 88.6498 60.2962 88.5798 60.56 88.4397C60.8271 88.2964 61.0258 88.0993 61.1561 87.8485C61.2897 87.5944 61.3565 87.3029 61.3565 86.9739C61.3565 86.6417 61.2897 86.3518 61.1561 86.1042C61.0258 85.8534 60.8271 85.6596 60.56 85.5228C60.2929 85.3827 59.9542 85.3127 59.5437 85.3127H58.117V93.5896H56.0014ZM73.5227 86.4609C73.4836 86.0667 73.3158 85.7605 73.0194 85.5423C72.723 85.3241 72.3207 85.2149 71.8126 85.2149C71.4673 85.2149 71.1758 85.2638 70.938 85.3615C70.7002 85.456 70.5178 85.5879 70.3907 85.7573C70.267 85.9267 70.2051 86.1189 70.2051 86.3338C70.1986 86.513 70.236 86.6693 70.3174 86.8029C70.4021 86.9365 70.5178 87.0521 70.6644 87.1498C70.8109 87.2443 70.9803 87.3273 71.1725 87.399C71.3647 87.4674 71.5699 87.526 71.7881 87.5749L72.6872 87.7899C73.1237 87.8876 73.5243 88.0179 73.8891 88.1808C74.254 88.3436 74.5699 88.544 74.837 88.7817C75.1041 89.0195 75.311 89.2997 75.4576 89.6221C75.6074 89.9446 75.6839 90.3143 75.6872 90.7313C75.6839 91.3437 75.5276 91.8746 75.2181 92.3241C74.9119 92.7704 74.4689 93.1173 73.8891 93.3648C73.3126 93.6091 72.6171 93.7313 71.8028 93.7313C70.995 93.7313 70.2914 93.6075 69.692 93.36C69.0959 93.1124 68.6301 92.7459 68.2946 92.2606C67.9624 91.772 67.7881 91.1678 67.7718 90.4479H69.8191C69.8419 90.7834 69.938 91.0635 70.1073 91.2883C70.28 91.5098 70.5096 91.6775 70.7963 91.7915C71.0862 91.9023 71.4135 91.9577 71.7784 91.9577C72.1367 91.9577 72.4478 91.9055 72.7116 91.8013C72.9787 91.6971 73.1856 91.5521 73.3321 91.3665C73.4787 91.1808 73.552 90.9674 73.552 90.7264C73.552 90.5016 73.4852 90.3127 73.3517 90.1596C73.2214 90.0065 73.0292 89.8762 72.7751 89.7687C72.5243 89.6612 72.2165 89.5635 71.8517 89.4756L70.7621 89.2019C69.9184 88.9967 69.2523 88.6759 68.7637 88.2394C68.2751 87.8029 68.0324 87.215 68.0357 86.4755C68.0324 85.8697 68.1937 85.3403 68.5194 84.8876C68.8484 84.4348 69.2995 84.0814 69.8728 83.8273C70.4461 83.5732 71.0976 83.4462 71.8272 83.4462C72.5699 83.4462 73.2181 83.5732 73.7719 83.8273C74.3289 84.0814 74.7621 84.4348 75.0716 84.8876C75.381 85.3403 75.5406 85.8648 75.5504 86.4609H73.5227ZM80.4621 93.7362C79.6933 93.7362 79.0321 93.5733 78.4783 93.2476C77.9279 92.9186 77.5044 92.4626 77.208 91.8795C76.9148 91.2964 76.7682 90.6254 76.7682 89.8664C76.7682 89.0977 76.9164 88.4234 77.2129 87.8436C77.5125 87.2606 77.9376 86.8062 78.4881 86.4804C79.0386 86.1514 79.6933 85.9869 80.4523 85.9869C81.107 85.9869 81.6803 86.1058 82.1722 86.3436C82.664 86.5814 83.0533 86.9153 83.3399 87.3452C83.6266 87.7752 83.7846 88.2801 83.8139 88.8599H81.8497C81.7943 88.4853 81.6478 88.184 81.41 87.956C81.1754 87.7247 80.8676 87.6091 80.4865 87.6091C80.164 87.6091 79.8823 87.697 79.6412 87.8729C79.4034 88.0456 79.2178 88.298 79.0842 88.6303C78.9507 88.9625 78.8839 89.3648 78.8839 89.8371C78.8839 90.316 78.949 90.7231 79.0793 91.0586C79.2129 91.3941 79.4002 91.6498 79.6412 91.8257C79.8823 92.0016 80.164 92.0896 80.4865 92.0896C80.7243 92.0896 80.9377 92.0407 81.1266 91.943C81.3188 91.8453 81.4767 91.7036 81.6005 91.5179C81.7276 91.329 81.8106 91.1026 81.8497 90.8388H83.8139C83.7813 91.4121 83.625 91.9169 83.3448 92.3534C83.068 92.7867 82.6852 93.1254 82.1966 93.3697C81.708 93.614 81.1298 93.7362 80.4621 93.7362ZM88.5375 93.7362C87.7785 93.7362 87.1221 93.5749 86.5684 93.2525C86.0179 92.9267 85.5928 92.474 85.2931 91.8941C84.9935 91.3111 84.8436 90.6352 84.8436 89.8664C84.8436 89.0912 84.9935 88.4137 85.2931 87.8339C85.5928 87.2508 86.0179 86.798 86.5684 86.4755C87.1221 86.1498 87.7785 85.9869 88.5375 85.9869C89.2964 85.9869 89.9512 86.1498 90.5017 86.4755C91.0554 86.798 91.4821 87.2508 91.7818 87.8339C92.0815 88.4137 92.2313 89.0912 92.2313 89.8664C92.2313 90.6352 92.0815 91.3111 91.7818 91.8941C91.4821 92.474 91.0554 92.9267 90.5017 93.2525C89.9512 93.5749 89.2964 93.7362 88.5375 93.7362ZM88.5472 92.1238C88.8925 92.1238 89.1808 92.0261 89.4121 91.8306C89.6433 91.6319 89.8176 91.3616 89.9349 91.0195C90.0554 90.6775 90.1157 90.2883 90.1157 89.8518C90.1157 89.4153 90.0554 89.026 89.9349 88.684C89.8176 88.342 89.6433 88.0716 89.4121 87.8729C89.1808 87.6742 88.8925 87.5749 88.5472 87.5749C88.1987 87.5749 87.9055 87.6742 87.6678 87.8729C87.4332 88.0716 87.2557 88.342 87.1352 88.684C87.0179 89.026 86.9593 89.4153 86.9593 89.8518C86.9593 90.2883 87.0179 90.6775 87.1352 91.0195C87.2557 91.3616 87.4332 91.6319 87.6678 91.8306C87.9055 92.0261 88.1987 92.1238 88.5472 92.1238ZM93.5847 93.5896V86.0847H95.6027V87.3941H95.6809C95.8177 86.9283 96.0473 86.5765 96.3698 86.3387C96.6923 86.0977 97.0636 85.9772 97.4838 85.9772C97.588 85.9772 97.7004 85.9837 97.8209 85.9967C97.9415 86.0097 98.0473 86.0276 98.1385 86.0504V87.8974C98.0408 87.8681 97.9056 87.842 97.733 87.8192C97.5603 87.7964 97.4024 87.785 97.259 87.785C96.9528 87.785 96.6792 87.8518 96.4382 87.9853C96.2004 88.1156 96.0115 88.298 95.8714 88.5326C95.7346 88.7671 95.6662 89.0374 95.6662 89.3436V93.5896H93.5847ZM102.286 93.7362C101.514 93.7362 100.849 93.5798 100.292 93.2671C99.7383 92.9512 99.3116 92.5049 99.0119 91.9283C98.7122 91.3485 98.5624 90.6629 98.5624 89.8713C98.5624 89.0993 98.7122 88.4218 99.0119 87.8387C99.3116 87.2557 99.7334 86.8013 100.277 86.4755C100.825 86.1498 101.466 85.9869 102.202 85.9869C102.698 85.9869 103.159 86.0667 103.585 86.2263C104.015 86.3827 104.39 86.6189 104.709 86.9348C105.031 87.2508 105.282 87.6482 105.461 88.127C105.641 88.6026 105.73 89.1596 105.73 89.798V90.3697H99.393V89.0798H103.771C103.771 88.7801 103.706 88.5146 103.575 88.2834C103.445 88.0521 103.264 87.8713 103.033 87.741C102.805 87.6075 102.54 87.5407 102.237 87.5407C101.921 87.5407 101.641 87.614 101.396 87.7606C101.155 87.9039 100.966 88.0977 100.83 88.342C100.693 88.583 100.623 88.8518 100.619 89.1482V90.3746C100.619 90.7459 100.688 91.0668 100.825 91.3371C100.965 91.6075 101.162 91.816 101.416 91.9626C101.67 92.1091 101.971 92.1824 102.32 92.1824C102.551 92.1824 102.763 92.1498 102.955 92.0847C103.147 92.0196 103.312 91.9218 103.448 91.7915C103.585 91.6612 103.689 91.5016 103.761 91.3127L105.686 91.4397C105.589 91.9023 105.388 92.3062 105.085 92.6515C104.786 92.9935 104.398 93.2606 103.922 93.4528C103.45 93.6417 102.904 93.7362 102.286 93.7362Z" fill="#12141D"/>
<rect opacity="0.3" x="37.3477" y="155.273" width="18.5004" height="88.3276" rx="9.25021" fill="#C4C4C4"/>
<rect x="37.3477" y="190.231" width="18.5004" height="53.3681" rx="9.25021" fill="#FEA25F"/>
<rect opacity="0.3" x="75.582" y="155.273" width="18.5004" height="88.3276" rx="9.25021" fill="#C4C4C4"/>
<rect x="75.582" y="205.952" width="18.5004" height="37.6473" rx="9.25021" fill="#714EFF"/>
<rect opacity="0.3" x="113.816" y="155.273" width="18.5004" height="88.3276" rx="9.25021" fill="#C4C4C4"/>
<rect x="113.816" y="174.096" width="18.5004" height="69.5027" rx="9.25021" fill="#FEA25F"/>
<rect opacity="0.3" x="343.221" y="155.273" width="18.5004" height="88.3276" rx="9.25021" fill="#C4C4C4"/>
<rect x="343.221" y="174.097" width="18.5004" height="69.5027" rx="9.25021" fill="#714EFF"/>
<rect opacity="0.3" x="152.049" y="155.273" width="18.5004" height="88.3276" rx="9.25021" fill="#C4C4C4"/>
<rect x="152.049" y="186.508" width="18.5004" height="57.0915" rx="9.25021" fill="#714EFF"/>
<rect opacity="0.3" x="190.285" y="155.273" width="18.5004" height="88.3276" rx="9.25021" fill="#C4C4C4"/>
<rect x="190.285" y="222.087" width="18.5004" height="21.5127" rx="9.25021" fill="#14B082"/>
<rect opacity="0.3" x="381.455" y="155.273" width="18.5004" height="88.3276" rx="9.25021" fill="#C4C4C4"/>
<rect x="381.455" y="222.087" width="18.5004" height="21.5127" rx="9.25021" fill="#14B082"/>
<rect opacity="0.3" x="266.754" y="155.273" width="18.5004" height="88.3276" rx="9.25021" fill="#C4C4C4"/>
<rect x="266.754" y="205.952" width="18.5004" height="37.6473" rx="9.25021" fill="#714EFF"/>
<rect opacity="0.3" x="304.986" y="155.273" width="18.5004" height="88.3276" rx="9.25021" fill="#C4C4C4"/>
<rect x="304.986" y="222.087" width="18.5004" height="21.5127" rx="9.25021" fill="#714EFF"/>
<rect opacity="0.3" x="457.926" y="155.273" width="18.5004" height="88.3276" rx="9.25021" fill="#C4C4C4"/>
<rect x="457.926" y="222.087" width="18.5004" height="21.5127" rx="9.25021" fill="#14B082"/>
<rect opacity="0.3" x="228.52" y="155.273" width="18.5004" height="88.3276" rx="9.25021" fill="#C4C4C4"/>
<rect x="228.52" y="205.952" width="18.5004" height="37.6473" rx="9.25021" fill="#FEA25F"/>
<rect opacity="0.3" x="419.689" y="155.273" width="18.5004" height="88.3276" rx="9.25021" fill="#C4C4C4"/>
<rect x="419.689" y="205.952" width="18.5004" height="37.6473" rx="9.25021" fill="#FEA25F"/>
</g>
<defs>
<filter id="filter0_d_752_8447" x="-114.017" y="-108.323" width="741.113" height="684.104" filterUnits="userSpaceOnUse" color-interpolation-filters="sRGB">
<feFlood flood-opacity="0" result="BackgroundImageFix"/>
<feColorMatrix in="SourceAlpha" type="matrix" values="0 0 0 0 0 0 0 0 0 0 0 0 0 0 0 0 0 0 127 0" result="hardAlpha"/>
<feOffset dy="5.70087"/>
<feGaussianBlur stdDeviation="57.0087"/>
<feComposite in2="hardAlpha" operator="out"/>
<feColorMatrix type="matrix" values="0 0 0 0 0 0 0 0 0 0 0 0 0 0 0 0 0 0 0.04 0"/>
<feBlend mode="normal" in2="BackgroundImageFix" result="effect1_dropShadow_752_8447"/>
<feBlend mode="normal" in="SourceGraphic" in2="effect1_dropShadow_752_8447" result="shape"/>
</filter>
<clipPath id="clip0_752_8447">
<rect width="513" height="236" fill="white"/>
</clipPath>
</defs>
</svg>
