<svg width="182" height="41" viewBox="0 0 182 41" fill="none" xmlns="http://www.w3.org/2000/svg">
<g clip-path="url(#clip0_1894_794)">
<path d="M181.5 3.5332V39.5332C181.5 40.6378 180.605 41.5332 179.5 41.5332H5.48397C3.56357 41.5332 2.74694 39.0898 4.2814 37.9351L23.9539 23.1313C25.0172 22.3312 25.0172 20.7352 23.9539 19.9351L4.2814 5.13127C2.74694 3.97657 3.56357 1.5332 5.48397 1.5332H179.5C180.605 1.5332 181.5 2.42863 181.5 3.5332Z" fill="#9555FF"/>
<path d="M59.4902 13.7363V26.5332H57.0732V13.7363H59.4902ZM64.6494 19.2646V21.1719H58.8574V19.2646H64.6494ZM65.3262 13.7363V15.6436H58.8574V13.7363H65.3262ZM70.8721 26.709C70.1514 26.709 69.5039 26.5918 68.9297 26.3574C68.3555 26.123 67.8662 25.7979 67.4619 25.3818C67.0635 24.96 66.7559 24.4707 66.5391 23.9141C66.3281 23.3516 66.2227 22.748 66.2227 22.1035V21.752C66.2227 21.0195 66.3281 20.3545 66.5391 19.7568C66.75 19.1533 67.0488 18.6348 67.4355 18.2012C67.8223 17.7676 68.2852 17.4336 68.8242 17.1992C69.3633 16.9648 69.958 16.8477 70.6084 16.8477C71.2822 16.8477 71.877 16.9619 72.3926 17.1904C72.9082 17.4131 73.3389 17.7295 73.6846 18.1396C74.0303 18.5498 74.291 19.042 74.4668 19.6162C74.6426 20.1846 74.7305 20.8145 74.7305 21.5059V22.4814H67.2773V20.8818H72.4453V20.7061C72.4336 20.3369 72.3633 20 72.2344 19.6953C72.1055 19.3848 71.9062 19.1387 71.6367 18.957C71.3672 18.7695 71.0186 18.6758 70.5908 18.6758C70.2451 18.6758 69.9434 18.752 69.6855 18.9043C69.4336 19.0508 69.2227 19.2617 69.0527 19.5371C68.8887 19.8066 68.7656 20.1289 68.6836 20.5039C68.6016 20.8789 68.5605 21.2949 68.5605 21.752V22.1035C68.5605 22.502 68.6133 22.8711 68.7188 23.2109C68.8301 23.5508 68.9912 23.8467 69.2021 24.0986C69.4189 24.3447 69.6768 24.5381 69.9756 24.6787C70.2803 24.8135 70.626 24.8809 71.0127 24.8809C71.499 24.8809 71.9385 24.7871 72.3311 24.5996C72.7295 24.4062 73.0752 24.1221 73.3682 23.7471L74.5371 24.96C74.3379 25.2529 74.0684 25.5342 73.7285 25.8037C73.3945 26.0732 72.9902 26.293 72.5156 26.4629C72.041 26.627 71.4932 26.709 70.8721 26.709ZM81.5244 24.5117V20.126C81.5244 19.8037 81.4688 19.5254 81.3574 19.291C81.2461 19.0566 81.0762 18.875 80.8477 18.7461C80.6191 18.6172 80.3291 18.5527 79.9775 18.5527C79.667 18.5527 79.3945 18.6055 79.1602 18.7109C78.9316 18.8164 78.7559 18.9658 78.6328 19.1592C78.5098 19.3467 78.4482 19.5635 78.4482 19.8096H76.1191C76.1191 19.417 76.2129 19.0449 76.4004 18.6934C76.5879 18.3359 76.8545 18.0195 77.2002 17.7441C77.5518 17.4629 77.9707 17.2432 78.457 17.085C78.9492 16.9268 79.5 16.8477 80.1094 16.8477C80.8301 16.8477 81.4717 16.9707 82.0342 17.2168C82.6025 17.457 83.0479 17.8203 83.3701 18.3066C83.6982 18.793 83.8623 19.4053 83.8623 20.1436V24.292C83.8623 24.7666 83.8916 25.1738 83.9502 25.5137C84.0146 25.8477 84.1084 26.1377 84.2314 26.3838V26.5332H81.8672C81.7559 26.293 81.6709 25.9883 81.6123 25.6191C81.5537 25.2441 81.5244 24.875 81.5244 24.5117ZM81.8496 20.7412L81.8672 22.1211H80.3994C80.0361 22.1211 79.7168 22.1592 79.4414 22.2354C79.166 22.3057 78.9404 22.4111 78.7646 22.5518C78.5889 22.6865 78.457 22.8506 78.3691 23.0439C78.2812 23.2314 78.2373 23.4453 78.2373 23.6855C78.2373 23.9199 78.29 24.1309 78.3955 24.3184C78.5068 24.5059 78.665 24.6553 78.8701 24.7666C79.0811 24.8721 79.3271 24.9248 79.6084 24.9248C80.0186 24.9248 80.376 24.8428 80.6807 24.6787C80.9854 24.5088 81.2227 24.3037 81.3926 24.0635C81.5625 23.8232 81.6533 23.5947 81.665 23.3779L82.333 24.3799C82.251 24.6201 82.1279 24.875 81.9639 25.1445C81.7998 25.4141 81.5889 25.666 81.3311 25.9004C81.0732 26.1348 80.7627 26.3281 80.3994 26.4805C80.0361 26.6328 79.6143 26.709 79.1338 26.709C78.5186 26.709 77.9678 26.5859 77.4814 26.3398C76.9951 26.0938 76.6113 25.7568 76.3301 25.3291C76.0488 24.9014 75.9082 24.415 75.9082 23.8701C75.9082 23.3662 76.002 22.9209 76.1895 22.5342C76.377 22.1475 76.6553 21.8223 77.0244 21.5586C77.3936 21.2891 77.8506 21.0869 78.3955 20.9521C78.9463 20.8115 79.5762 20.7412 80.2852 20.7412H81.8496ZM90.4541 17.0234V18.6934H85.0049V17.0234H90.4541ZM86.4639 14.6855H88.793V23.791C88.793 24.0723 88.8311 24.2891 88.9072 24.4414C88.9834 24.5938 89.0977 24.6963 89.25 24.749C89.4023 24.8018 89.584 24.8281 89.7949 24.8281C89.9473 24.8281 90.0879 24.8193 90.2168 24.8018C90.3457 24.7842 90.4541 24.7666 90.542 24.749L90.5508 26.4893C90.3574 26.5537 90.1377 26.6064 89.8916 26.6475C89.6514 26.6885 89.3789 26.709 89.0742 26.709C88.5527 26.709 88.0957 26.6211 87.7031 26.4453C87.3105 26.2637 87.0059 25.9736 86.7891 25.5752C86.5723 25.1709 86.4639 24.6377 86.4639 23.9756V14.6855ZM97.6611 24.2744V17.0234H99.999V26.5332H97.8018L97.6611 24.2744ZM97.96 22.3057L98.6807 22.2881C98.6807 22.9268 98.6104 23.5156 98.4697 24.0547C98.3291 24.5938 98.1094 25.0625 97.8105 25.4609C97.5176 25.8535 97.1455 26.1611 96.6943 26.3838C96.2432 26.6006 95.71 26.709 95.0947 26.709C94.626 26.709 94.1982 26.6445 93.8115 26.5156C93.4248 26.3809 93.0908 26.1729 92.8096 25.8916C92.5342 25.6045 92.3203 25.2383 92.168 24.793C92.0156 24.3418 91.9395 23.7998 91.9395 23.167V17.0234H94.2598V23.1846C94.2598 23.501 94.2949 23.7646 94.3652 23.9756C94.4414 24.1865 94.5439 24.3594 94.6729 24.4941C94.8076 24.623 94.9629 24.7168 95.1387 24.7754C95.3203 24.8281 95.5137 24.8545 95.7188 24.8545C96.2812 24.8545 96.7236 24.7432 97.0459 24.5205C97.374 24.292 97.6084 23.9873 97.749 23.6064C97.8896 23.2197 97.96 22.7861 97.96 22.3057ZM104.376 18.9658V26.5332H102.056V17.0234H104.253L104.376 18.9658ZM107.268 16.9619L107.232 19.124C107.104 19.1006 106.957 19.083 106.793 19.0713C106.635 19.0596 106.485 19.0537 106.345 19.0537C105.987 19.0537 105.674 19.1035 105.404 19.2031C105.135 19.2969 104.909 19.4346 104.728 19.6162C104.552 19.7979 104.417 20.0205 104.323 20.2842C104.229 20.542 104.177 20.835 104.165 21.1631L103.664 21.1016C103.664 20.498 103.726 19.9385 103.849 19.4229C103.972 18.9072 104.15 18.4561 104.385 18.0693C104.619 17.6826 104.912 17.3838 105.264 17.1729C105.621 16.9561 106.031 16.8477 106.494 16.8477C106.623 16.8477 106.761 16.8594 106.907 16.8828C107.06 16.9004 107.18 16.9268 107.268 16.9619ZM112.638 26.709C111.917 26.709 111.27 26.5918 110.695 26.3574C110.121 26.123 109.632 25.7979 109.228 25.3818C108.829 24.96 108.521 24.4707 108.305 23.9141C108.094 23.3516 107.988 22.748 107.988 22.1035V21.752C107.988 21.0195 108.094 20.3545 108.305 19.7568C108.516 19.1533 108.814 18.6348 109.201 18.2012C109.588 17.7676 110.051 17.4336 110.59 17.1992C111.129 16.9648 111.724 16.8477 112.374 16.8477C113.048 16.8477 113.643 16.9619 114.158 17.1904C114.674 17.4131 115.104 17.7295 115.45 18.1396C115.796 18.5498 116.057 19.042 116.232 19.6162C116.408 20.1846 116.496 20.8145 116.496 21.5059V22.4814H109.043V20.8818H114.211V20.7061C114.199 20.3369 114.129 20 114 19.6953C113.871 19.3848 113.672 19.1387 113.402 18.957C113.133 18.7695 112.784 18.6758 112.356 18.6758C112.011 18.6758 111.709 18.752 111.451 18.9043C111.199 19.0508 110.988 19.2617 110.818 19.5371C110.654 19.8066 110.531 20.1289 110.449 20.5039C110.367 20.8789 110.326 21.2949 110.326 21.752V22.1035C110.326 22.502 110.379 22.8711 110.484 23.2109C110.596 23.5508 110.757 23.8467 110.968 24.0986C111.185 24.3447 111.442 24.5381 111.741 24.6787C112.046 24.8135 112.392 24.8809 112.778 24.8809C113.265 24.8809 113.704 24.7871 114.097 24.5996C114.495 24.4062 114.841 24.1221 115.134 23.7471L116.303 24.96C116.104 25.2529 115.834 25.5342 115.494 25.8037C115.16 26.0732 114.756 26.293 114.281 26.4629C113.807 26.627 113.259 26.709 112.638 26.709ZM123.756 24.5117V13.0332H126.094V26.5332H123.984L123.756 24.5117ZM117.647 21.8926V21.708C117.647 20.9814 117.729 20.3223 117.894 19.7305C118.063 19.1328 118.31 18.6201 118.632 18.1924C118.954 17.7646 119.344 17.4336 119.801 17.1992C120.264 16.9648 120.788 16.8477 121.374 16.8477C121.942 16.8477 122.438 16.9619 122.859 17.1904C123.287 17.4189 123.65 17.7441 123.949 18.166C124.254 18.5879 124.497 19.0889 124.679 19.6689C124.86 20.2432 124.992 20.876 125.074 21.5674V22.0684C124.992 22.7422 124.86 23.3604 124.679 23.9229C124.497 24.4854 124.254 24.9775 123.949 25.3994C123.65 25.8154 123.287 26.1377 122.859 26.3662C122.432 26.5947 121.931 26.709 121.356 26.709C120.776 26.709 120.255 26.5889 119.792 26.3486C119.335 26.1084 118.945 25.7715 118.623 25.3379C118.307 24.9043 118.063 24.3945 117.894 23.8086C117.729 23.2227 117.647 22.584 117.647 21.8926ZM119.977 21.708V21.8926C119.977 22.3027 120.012 22.6865 120.082 23.0439C120.152 23.4014 120.267 23.7178 120.425 23.9932C120.583 24.2627 120.785 24.4736 121.031 24.626C121.283 24.7783 121.588 24.8545 121.945 24.8545C122.402 24.8545 122.777 24.7549 123.07 24.5557C123.369 24.3506 123.601 24.0723 123.765 23.7207C123.929 23.3633 124.034 22.9619 124.081 22.5166V21.1367C124.058 20.7852 123.996 20.46 123.896 20.1611C123.803 19.8623 123.668 19.6045 123.492 19.3877C123.322 19.1709 123.111 19.001 122.859 18.8779C122.607 18.7549 122.309 18.6934 121.963 18.6934C121.605 18.6934 121.301 18.7725 121.049 18.9307C120.797 19.083 120.592 19.2969 120.434 19.5723C120.275 19.8477 120.158 20.167 120.082 20.5303C120.012 20.8936 119.977 21.2861 119.977 21.708Z" fill="white"/>
</g>
<defs>
<clipPath id="clip0_1894_794">
<rect width="182" height="40" fill="white" transform="translate(0.5 0.533203)"/>
</clipPath>
</defs>
</svg>
