<svg width="32" height="33" viewBox="0 0 32 33" fill="none" xmlns="http://www.w3.org/2000/svg">
<circle cx="16" cy="16.5332" r="16" fill="#F8F1FC"/>
<path fill-rule="evenodd" clip-rule="evenodd" d="M16.6937 8.79102C12.5897 8.79102 9.28809 12.0927 9.28809 16.1966C9.28809 19.4674 11.4172 22.2445 14.3486 23.2319C14.7189 23.2936 14.8423 23.0776 14.8423 22.8616C14.8423 22.6765 14.8423 22.2137 14.8423 21.5965C12.7749 22.0594 12.3429 20.6091 12.3429 20.6091C12.0035 19.7451 11.5098 19.5291 11.5098 19.5291C10.8309 19.0663 11.5715 19.0663 11.5715 19.0663C12.312 19.128 12.7132 19.8377 12.7132 19.8377C13.3612 20.9794 14.4411 20.64 14.8731 20.4548C14.9349 19.9611 15.12 19.6526 15.336 19.4674C13.7006 19.2823 11.9726 18.6343 11.9726 15.7955C11.9726 14.9932 12.2503 14.3144 12.744 13.8206C12.6823 13.6355 12.4046 12.8949 12.8057 11.8458C12.8057 11.8458 13.4229 11.6607 14.8423 12.6172C15.4286 12.463 16.0765 12.3704 16.6937 12.3704C17.3108 12.3704 17.9588 12.463 18.5451 12.6172C19.9645 11.6607 20.5816 11.8458 20.5816 11.8458C20.9828 12.8641 20.7359 13.6047 20.6433 13.8206C21.1062 14.3452 21.4147 14.9932 21.4147 15.7955C21.4147 18.6343 19.6868 19.2514 18.0205 19.4366C18.2982 19.6526 18.5142 20.1154 18.5142 20.7943C18.5142 21.7817 18.5142 22.5839 18.5142 22.8308C18.5142 23.0159 18.6376 23.2628 19.0388 23.2011C21.9702 22.2445 24.0993 19.4674 24.0993 16.1966C24.0993 12.0927 20.7976 8.79102 16.6937 8.79102Z" fill="#101010"/>
</svg>
