<svg width="32" height="33" viewBox="0 0 32 33" fill="none" xmlns="http://www.w3.org/2000/svg">
<circle cx="16" cy="16.5332" r="16" fill="#F8F1FC"/>
<path d="M15.9997 10.186C18.0668 10.186 18.3116 10.1938 19.1282 10.231C19.6192 10.237 20.1055 10.3272 20.566 10.4976C20.9 10.6263 21.2032 10.8236 21.4563 11.0767C21.7094 11.3298 21.9067 11.6331 22.0355 11.9671C22.2059 12.4276 22.296 12.9139 22.3021 13.4048C22.3389 14.2214 22.347 14.4662 22.347 16.5333C22.347 18.6004 22.3393 18.8452 22.3021 19.6618C22.296 20.1528 22.2059 20.6391 22.0355 21.0996C21.9067 21.4335 21.7094 21.7368 21.4563 21.9899C21.2032 22.243 20.9 22.4403 20.566 22.5691C20.1055 22.7395 19.6192 22.8296 19.1282 22.8356C18.312 22.8725 18.0672 22.8806 15.9997 22.8806C13.9323 22.8806 13.6875 22.8729 12.8713 22.8356C12.3803 22.8296 11.894 22.7395 11.4335 22.5691C11.0995 22.4403 10.7962 22.243 10.5432 21.9899C10.2901 21.7368 10.0928 21.4335 9.96399 21.0996C9.79361 20.6391 9.70345 20.1528 9.69744 19.6618C9.66058 18.8452 9.65247 18.6004 9.65247 16.5333C9.65247 14.4662 9.66021 14.2214 9.69744 13.4048C9.70345 12.9139 9.79361 12.4276 9.96399 11.9671C10.0928 11.6331 10.2901 11.3298 10.5432 11.0767C10.7962 10.8236 11.0995 10.6263 11.4335 10.4976C11.894 10.3272 12.3803 10.237 12.8713 10.231C13.6879 10.1941 13.9327 10.186 15.9997 10.186ZM15.9997 8.79102C13.8984 8.79102 13.6337 8.79986 12.8079 8.83747C12.1653 8.85025 11.5296 8.97191 10.9277 9.19728C10.4114 9.39181 9.94371 9.69666 9.55735 10.0906C9.1631 10.4771 8.85799 10.945 8.66334 11.4616C8.43797 12.0635 8.31631 12.6992 8.30353 13.3418C8.26666 14.1669 8.25781 14.4316 8.25781 16.533C8.25781 18.6343 8.26666 18.899 8.30426 19.7248C8.31704 20.3674 8.43871 21.0031 8.66408 21.605C8.85852 22.1216 9.16337 22.5895 9.55735 22.9761C9.94392 23.3701 10.4118 23.6749 10.9284 23.8694C11.5303 24.0947 12.166 24.2164 12.8086 24.2292C13.6344 24.266 13.898 24.2756 16.0005 24.2756C18.103 24.2756 18.3666 24.2668 19.1924 24.2292C19.8349 24.2164 20.4707 24.0947 21.0726 23.8694C21.5867 23.6701 22.0536 23.3657 22.4433 22.9756C22.8331 22.5856 23.1372 22.1185 23.3362 21.6043C23.5615 21.0024 23.6832 20.3667 23.696 19.7241C23.7328 18.899 23.7417 18.6343 23.7417 16.533C23.7417 14.4316 23.7328 14.1669 23.6952 13.3411C23.6824 12.6985 23.5608 12.0628 23.3354 11.4609C23.141 10.9443 22.8361 10.4764 22.4421 10.0898C22.0556 9.69583 21.5877 9.39098 21.0711 9.19655C20.4692 8.97117 19.8335 8.84951 19.1909 8.83673C18.3658 8.79986 18.1011 8.79102 15.9997 8.79102Z" fill="#101010"/>
<path d="M15.9991 12.5586C15.2128 12.5586 14.4441 12.7918 13.7903 13.2286C13.1365 13.6655 12.627 14.2864 12.3261 15.0128C12.0252 15.7393 11.9464 16.5387 12.0998 17.3099C12.2532 18.0811 12.6319 18.7895 13.1879 19.3455C13.7439 19.9015 14.4523 20.2801 15.2235 20.4335C15.9947 20.5869 16.7941 20.5082 17.5205 20.2073C18.247 19.9064 18.8679 19.3968 19.3048 18.743C19.7416 18.0892 19.9748 17.3206 19.9748 16.5343C19.9748 15.4798 19.5559 14.4686 18.8103 13.723C18.0647 12.9775 17.0535 12.5586 15.9991 12.5586ZM15.9991 19.1149C15.4887 19.1149 14.9898 18.9636 14.5654 18.68C14.141 18.3964 13.8102 17.9934 13.6149 17.5218C13.4196 17.0503 13.3685 16.5314 13.468 16.0308C13.5676 15.5302 13.8134 15.0704 14.1743 14.7095C14.5352 14.3486 14.9951 14.1028 15.4956 14.0032C15.9962 13.9036 16.5151 13.9547 16.9867 14.1501C17.4582 14.3454 17.8613 14.6761 18.1448 15.1005C18.4284 15.5249 18.5798 16.0239 18.5798 16.5343C18.5798 17.2187 18.3079 17.8751 17.8239 18.3591C17.3399 18.843 16.6835 19.1149 15.9991 19.1149Z" fill="#101010"/>
<path d="M20.1322 13.3307C20.6452 13.3307 21.0612 12.9148 21.0612 12.4017C21.0612 11.8886 20.6452 11.4727 20.1322 11.4727C19.6191 11.4727 19.2031 11.8886 19.2031 12.4017C19.2031 12.9148 19.6191 13.3307 20.1322 13.3307Z" fill="#101010"/>
</svg>
