<svg width="32" height="33" viewBox="0 0 32 33" fill="none" xmlns="http://www.w3.org/2000/svg">
<circle cx="16" cy="16.5332" r="16" fill="#F8F1FC"/>
<path d="M23.1003 13.0839C22.6214 13.2968 22.1159 13.4298 21.5838 13.5096C22.1159 13.1903 22.5416 12.6849 22.7278 12.073C22.2223 12.3656 21.6636 12.5784 21.0517 12.7115C20.5728 12.206 19.8811 11.8867 19.1362 11.8867C17.6995 11.8867 16.5289 13.0573 16.5289 14.494C16.5289 14.7068 16.5556 14.893 16.6088 15.0793C14.4538 14.9729 12.5117 13.9353 11.208 12.339C10.9952 12.7381 10.8622 13.1637 10.8622 13.6426C10.8622 14.5472 11.3144 15.3453 12.0328 15.8242C11.6071 15.7976 11.208 15.6912 10.8356 15.5049V15.5315C10.8356 16.8086 11.7401 17.8728 12.9373 18.1122C12.7245 18.1654 12.485 18.192 12.2456 18.192C12.086 18.192 11.8997 18.1654 11.7401 18.1388C12.086 19.1764 13.0437 19.9479 14.1877 19.9479C13.2832 20.6396 12.1658 21.0653 10.942 21.0653C10.7291 21.0653 10.5163 21.0653 10.3301 21.0387C11.5007 21.7836 12.8575 22.2093 14.3474 22.2093C19.1628 22.2093 21.7967 18.2186 21.7967 14.76C21.7967 14.6536 21.7967 14.5206 21.7967 14.4142C22.3021 14.0683 22.7544 13.616 23.1003 13.0839Z" fill="#101010"/>
</svg>
