<svg width="25" height="25" viewBox="0 0 25 25" fill="none" xmlns="http://www.w3.org/2000/svg">
<path d="M8.02734 9.26667C8.85577 9.26667 9.52734 8.5951 9.52734 7.76667C9.52734 6.93824 8.85577 6.26667 8.02734 6.26667C7.19892 6.26667 6.52734 6.93824 6.52734 7.76667C6.52734 8.5951 7.19892 9.26667 8.02734 9.26667Z" stroke="#948D9A" stroke-width="1.5" stroke-linecap="round" stroke-linejoin="round"/>
<path d="M3.02734 12.2667C3.02734 7.78833 3.02734 5.54916 4.41858 4.15791C5.80983 2.76667 8.049 2.76667 12.5273 2.76667C17.0056 2.76667 19.2448 2.76667 20.6361 4.15791C22.0273 5.54916 22.0273 7.78833 22.0273 12.2667C22.0273 16.745 22.0273 18.9842 20.6361 20.3755C19.2448 21.7667 17.0056 21.7667 12.5273 21.7667C8.049 21.7667 5.80983 21.7667 4.41858 20.3755C3.02734 18.9842 3.02734 16.745 3.02734 12.2667Z" stroke="#948D9A" stroke-width="1.5"/>
<path d="M5.52734 21.2666C9.8998 16.0417 14.8014 9.15067 22.0248 13.8091" stroke="#948D9A" stroke-width="1.5"/>
</svg>
