<svg width="72" height="73" viewBox="0 0 72 73" fill="none" xmlns="http://www.w3.org/2000/svg">
<circle cx="36" cy="36.5333" r="36" fill="#AE6CE1"/>
<path d="M39.3085 37.1672L36.1755 34.0342C35.7485 33.6072 35.535 33.3937 35.3046 33.2796C34.8664 33.0624 34.3519 33.0624 33.9135 33.2796C33.6832 33.3937 33.4697 33.6072 33.0426 34.0342C32.6156 34.4614 32.402 34.6749 32.2879 34.9052C32.0707 35.3435 32.0707 35.858 32.2879 36.2963C32.402 36.5267 32.6156 36.7402 33.0426 37.1672L36.1755 40.3001M39.3085 37.1672L48.7074 46.5661C49.1344 46.9931 49.3479 47.2066 49.4621 47.4371C49.6792 47.8753 49.6792 48.3898 49.4621 48.8282C49.3479 49.0584 49.1344 49.2719 48.7074 49.6991C48.2803 50.1261 48.0668 50.3396 47.8365 50.4538C47.3981 50.6709 46.8836 50.6709 46.4454 50.4538C46.215 50.3396 46.0015 50.1261 45.5745 49.6991L36.1755 40.3001M39.3085 37.1672L36.1755 40.3001" stroke="white" stroke-width="2" stroke-linecap="round" stroke-linejoin="round"/>
<path d="M43.7913 21.45L44.2213 22.6117C44.7849 24.135 45.0668 24.8967 45.6224 25.4523C46.178 26.0079 46.9396 26.2898 48.463 26.8535L49.6247 27.2833L48.463 27.7132C46.9396 28.2769 46.178 28.5587 45.6224 29.1143C45.0668 29.67 44.7849 30.4316 44.2213 31.955L43.7913 33.1167L43.3614 31.955C42.7978 30.4316 42.5159 29.67 41.9603 29.1143C41.4046 28.5587 40.6431 28.2769 39.1197 27.7132L37.958 27.2833L39.1197 26.8535C40.6431 26.2898 41.4046 26.0079 41.9603 25.4523C42.5159 24.8967 42.7978 24.135 43.3614 22.6117L43.7913 21.45Z" stroke="white" stroke-width="2" stroke-linejoin="round"/>
<path d="M26.8333 38.5333L27.2632 39.695C27.8269 41.2184 28.1088 41.98 28.6644 42.5356C29.22 43.0913 29.9816 43.3731 31.505 43.9368L32.6667 44.3667L31.505 44.7965C29.9816 45.3602 29.22 45.6421 28.6644 46.1977C28.1088 46.7533 27.8269 47.515 27.2632 49.0383L26.8333 50.2L26.4034 49.0383C25.8398 47.515 25.5579 46.7533 25.0022 46.1977C24.4466 45.642 23.6851 45.3602 22.1617 44.7965L21 44.3667L22.1617 43.9368C23.6851 43.3731 24.4466 43.0913 25.0022 42.5356C25.5579 41.98 25.8398 41.2184 26.4034 39.695L26.8333 38.5333Z" stroke="white" stroke-width="2" stroke-linejoin="round"/>
<path d="M27.75 24.3667L28.0724 25.2379C28.4952 26.3804 28.7066 26.9517 29.1233 27.3684C29.54 27.7851 30.1112 27.9965 31.2537 28.4192L32.125 28.7417L31.2537 29.0641C30.1112 29.4868 29.54 29.6982 29.1233 30.1149C28.7066 30.5316 28.4952 31.1029 28.0724 32.2454L27.75 33.1167L27.4276 32.2454C27.0048 31.1029 26.7935 30.5316 26.3767 30.1149C25.96 29.6982 25.3888 29.4868 24.2463 29.0641L23.375 28.7417L24.2463 28.4192C25.3888 27.9965 25.96 27.7851 26.3767 27.3684C26.7935 26.9517 27.0048 26.3804 27.4276 25.2379L27.75 24.3667Z" stroke="white" stroke-width="2" stroke-linejoin="round"/>
</svg>
