<svg width="24" height="25" viewBox="0 0 24 25" fill="none" xmlns="http://www.w3.org/2000/svg">
<path d="M19.5068 14.5166V11.8916C19.5068 10.0276 17.9958 8.51657 16.1318 8.51657H14.6318C14.0105 8.51657 13.5068 8.01289 13.5068 7.39157V5.89157C13.5068 4.02761 11.9958 2.51657 10.1318 2.51657H8.25684M8.25684 15.2666H12.0068H15.7568M8.25684 18.2666H12.0068M10.5068 2.51657H5.63184C5.01052 2.51657 4.50684 3.02025 4.50684 3.64157V20.8916C4.50684 21.5129 5.01052 22.0166 5.63184 22.0166H18.3818C19.0032 22.0166 19.5068 21.5129 19.5068 20.8916V11.5166C19.5068 6.54601 15.4774 2.51657 10.5068 2.51657Z" stroke="#948D9A" stroke-width="1.37" stroke-linecap="round" stroke-linejoin="round"/>
</svg>
